<?xml version="1.0" standalone="no"?><!DOCTYPE svg PUBLIC "-//W3C//DTD SVG 1.1//EN" "http://www.w3.org/Graphics/SVG/1.1/DTD/svg11.dtd"><svg class="icon" height="512" viewBox="0 0 1024 1024" version="1.1" xmlns="http://www.w3.org/2000/svg"><path d="M896 768c0 38.4-25.6 64-64 64L192 832c-38.4 0-64-25.6-64-64L128 448c0-25.6 12.8-44.8 32-57.6C179.2 345.6 211.2 294.4 243.2 256L192 256C83.2 256 0 339.2 0 448l0 320c0 108.8 83.2 192 192 192l640 0c108.8 0 192-83.2 192-192L1024 512l-128 96L896 768zM640 448l0 64c0 25.6 12.8 44.8 38.4 57.6C684.8 576 691.2 576 704 576c12.8 0 25.6-6.4 38.4-12.8l256-192C1017.6 358.4 1024 339.2 1024 320c0-19.2-6.4-38.4-25.6-51.2l-256-192C729.6 70.4 716.8 64 704 64c-12.8 0-19.2 0-25.6 6.4C652.8 83.2 640 102.4 640 128l0 64C428.8 192 256 364.8 256 576c0 44.8 6.4 89.6 19.2 128C332.8 556.8 473.6 448 640 448z" /></svg>